<?xml version="1.0" standalone="no"?>
<!DOCTYPE svg PUBLIC "-//W3C//DTD SVG 20010904//EN"
 "http://www.w3.org/TR/2001/REC-SVG-20010904/DTD/svg10.dtd">
<svg version="1.0" xmlns="http://www.w3.org/2000/svg"
 width="859.000000pt" height="1280.000000pt" viewBox="0 0 859.000000 1280.000000"
 preserveAspectRatio="xMidYMid meet">
<metadata>
Created by potrace 1.15, written by Peter Selinger 2001-2017
</metadata>
<g transform="translate(0.000000,1280.000000) scale(0.100000,-0.100000)"
fill="#000000" stroke="none">
<path d="M4299 12790 c-90 -16 -135 -54 -159 -135 -7 -24 -14 -143 -17 -298
l-6 -259 -456 5 c-369 3 -466 7 -510 19 -29 9 -57 22 -62 29 -21 33 -39 123
-47 245 -10 139 -25 189 -64 213 -56 35 -263 19 -395 -31 -82 -30 -91 -53
-156 -416 -28 -153 -79 -206 -255 -261 -243 -76 -453 -104 -518 -69 -37 20
-66 77 -84 163 -35 170 -96 205 -253 145 -118 -44 -144 -90 -133 -234 14 -199
114 -742 231 -1255 l17 -73 54 6 c90 10 391 71 769 155 756 167 1010 199 1626
208 643 9 1646 -48 2004 -113 346 -63 1189 -290 1259 -340 11 -8 28 -14 37
-14 21 0 63 48 94 109 79 156 217 703 291 1151 16 97 19 287 5 323 -23 59 -80
83 -159 68 -80 -16 -131 -89 -148 -211 -10 -77 -24 -111 -50 -121 -79 -29
-390 76 -573 195 -83 53 -107 90 -162 246 -94 266 -168 337 -364 348 -168 9
-200 -27 -214 -236 -9 -128 -15 -147 -61 -186 -66 -55 -163 -65 -630 -66
l-379 -1 -5 203 c-9 306 -34 424 -99 472 -26 19 -44 21 -205 23 -97 1 -198 -2
-223 -7z"/>
<path d="M5588 12568 c-14 -25 -18 -243 -5 -290 10 -36 36 -36 78 -1 55 47 89
102 89 145 0 34 -7 47 -63 104 -35 35 -68 64 -75 64 -6 0 -17 -10 -24 -22z"/>
<path d="M3190 12474 c-13 -32 -13 -194 0 -214 7 -12 13 -6 26 25 25 59 30
145 10 183 -20 39 -24 39 -36 6z"/>
<path d="M7015 12132 c-22 -16 -51 -42 -65 -56 l-25 -28 24 -19 c15 -12 39
-19 68 -19 36 0 50 6 74 30 26 25 30 36 27 72 -3 40 -5 43 -33 46 -21 2 -43
-6 -70 -26z"/>
<path d="M3555 10773 c-587 -22 -1132 -117 -1550 -268 -194 -70 -351 -152
-392 -205 -39 -48 4 -80 107 -80 135 0 280 27 820 150 719 164 864 180 1590
180 654 0 1187 -43 1800 -145 292 -49 422 -76 793 -166 337 -83 439 -98 457
-69 15 23 12 30 -24 65 -157 147 -936 387 -1571 484 -333 50 -580 61 -1345 59
-338 -1 -646 -3 -685 -5z"/>
<path d="M3660 10404 c-319 -22 -606 -69 -980 -161 -488 -119 -696 -228 -666
-348 13 -53 107 -42 455 52 360 96 472 114 846 134 310 17 1421 18 1705 1 625
-38 973 -77 1294 -148 298 -65 399 -76 461 -50 160 67 -226 230 -828 351 -544
109 -1145 165 -1822 170 -225 1 -435 1 -465 -1z"/>
<path d="M4010 9973 c-619 -22 -1219 -101 -1532 -199 -223 -70 -237 -97 -317
-619 -174 -1133 -453 -3480 -527 -4438 l-7 -87 49 0 c78 0 314 18 659 50 650
60 784 68 1302 79 1023 22 2023 -38 2893 -175 398 -62 422 -65 489 -62 l66 3
-1 40 c-1 22 -13 139 -27 260 -43 357 -84 866 -152 1890 -120 1800 -213 2779
-277 2920 -13 28 -43 44 -153 79 -276 88 -841 198 -1190 231 -324 30 -884 43
-1275 28z m1060 -2583 l0 -770 -660 0 -660 0 0 770 0 770 660 0 660 0 0 -770z"/>
<path d="M4876 7778 c-9 -34 -6 -420 3 -443 13 -32 34 114 35 240 1 167 -19
273 -38 203z"/>
<path d="M3615 4554 c-460 -9 -932 -36 -1230 -69 -388 -43 -807 -143 -1010
-241 -70 -34 -191 -146 -163 -152 9 -2 91 17 182 42 472 132 1179 237 1976
293 317 22 1483 26 1825 5 688 -41 1077 -85 1819 -208 375 -62 457 -58 357 14
-167 121 -863 221 -1951 282 -452 25 -1384 43 -1805 34z"/>
<path d="M3565 4234 c-727 -27 -1773 -148 -2235 -259 -271 -65 -447 -149 -438
-210 4 -26 4 -26 387 46 826 156 1219 206 1876 240 284 15 1593 15 1915 0
1061 -49 1717 -116 2420 -246 354 -66 362 -66 340 -24 -80 149 -1067 314
-2545 425 -307 23 -403 26 -985 28 -355 2 -685 2 -735 0z"/>
<path d="M3550 3819 c-708 -7 -934 -16 -1275 -49 -689 -69 -1368 -208 -1527
-313 -148 -98 -487 -1238 -714 -2402 -16 -81 -28 -177 -28 -227 -1 -79 1 -89
24 -114 103 -113 1107 -436 1925 -620 238 -53 468 -94 533 -94 59 0 111 26
135 67 32 56 65 291 117 823 40 415 94 845 125 997 125 612 510 1163 985 1412
167 87 279 111 518 111 434 0 657 -91 975 -399 251 -244 408 -497 527 -853
133 -397 198 -855 230 -1608 6 -140 16 -284 21 -320 20 -125 63 -157 198 -147
97 8 438 66 696 118 638 130 1407 362 1542 465 40 30 41 50 18 254 -86 746
-418 2461 -491 2534 -31 32 -322 101 -794 191 -553 104 -789 138 -1085 155
-164 9 -1705 32 -1900 28 -38 -1 -378 -5 -755 -9z m-1643 -949 c161 -18 219
-50 243 -135 18 -64 8 -304 -25 -575 -42 -354 -69 -493 -115 -595 -33 -72 -71
-110 -126 -124 -69 -18 -275 -30 -569 -33 -307 -3 -333 1 -360 53 -8 15 -15
53 -15 83 0 100 127 806 175 971 68 235 157 334 327 365 60 10 340 5 465 -10z
m5673 -1 c60 -27 87 -70 130 -207 124 -396 308 -1138 298 -1204 -3 -21 -11
-24 -83 -35 -123 -17 -457 -26 -565 -15 -124 13 -265 48 -315 77 -118 68 -219
329 -345 890 -55 246 -75 385 -60 430 24 74 90 84 560 81 293 -1 350 -4 380
-17z"/>
<path d="M1931 2513 c-14 -50 -14 -145 0 -180 l11 -28 19 40 c27 60 33 126 15
169 -19 46 -32 46 -45 -1z"/>
<path d="M4325 2470 l8 -840 -270 0 -270 0 -6 377 c-4 207 -7 513 -7 680 l0
303 -56 0 -57 0 6 -357 c11 -567 12 -993 4 -993 -4 0 -135 0 -292 0 l-285 0
-1 168 c0 92 -4 176 -8 187 -7 18 -8 18 -24 -5 -60 -95 -146 -554 -177 -954
-16 -203 -17 -642 -2 -679 26 -63 58 1 96 196 28 138 70 465 86 667 6 74 14
173 18 220 l7 85 298 3 297 2 0 -86 c0 -74 2 -85 16 -80 9 3 31 6 50 6 l34 0
0 80 0 80 271 -2 272 -3 4 -80 c3 -44 6 -81 8 -83 2 -2 24 0 49 3 l46 7 0 81
0 80 68 -6 c37 -4 172 -7 300 -7 l232 0 0 -70 0 -70 50 0 50 0 0 70 0 70 305
0 c236 0 307 -3 310 -12 2 -7 11 -206 20 -443 21 -581 34 -709 78 -769 13 -18
15 -16 31 29 54 160 44 820 -20 1230 -34 222 -74 368 -132 480 -31 60 -31 60
-31 25 -1 -29 21 -220 45 -397 l5 -43 -229 0 c-126 0 -263 3 -304 6 l-76 7 -6
501 c-4 275 -8 593 -9 706 l-2 205 -53 3 -53 3 6 -618 c3 -340 8 -660 10 -710
l5 -93 -298 0 -299 0 -6 248 c-4 136 -7 412 -7 613 0 201 -3 468 -7 592 l-6
227 -50 0 -49 0 7 -840z"/>
</g>
</svg>
